 <svg version="1.0" xmlns="http://www.w3.org/2000/svg" width="700.000000pt" height="284.000000pt" viewBox="0 0 700.000000 284.000000" preserveAspectRatio="xMidYMid meet">
<metadata>
Created by potrace 1.12, written by Peter Selinger 2001-2015
</metadata>
<g transform="translate(0.000000,284.000000) scale(0.100000,-0.100000)" fill="#000000" stroke="none">
<path d="M3192 2772 c-12 -32 -47 -98 -78 -147 -31 -48 -62 -104 -69 -124 -8
-21 -18 -35 -26 -33 -113 29 -379 56 -379 39 0 -3 9 -30 21 -59 11 -29 34
-102 49 -161 36 -136 60 -185 120 -247 59 -60 129 -96 234 -120 44 -9 74 -20
66 -23 -8 -3 -33 -11 -55 -18 -102 -31 -236 -118 -309 -201 -43 -49 -93 -131
-115 -191 l-11 -27 104 0 103 0 13 48 c19 70 75 188 111 234 51 64 125 117
190 135 32 9 56 19 54 23 -3 4 8 16 23 25 77 49 276 221 363 314 54 58 99 101
99 97 0 -26 -225 -309 -314 -396 -52 -50 -56 -60 -23 -60 42 0 129 -50 182
-105 58 -59 111 -157 140 -257 l16 -58 105 0 c57 0 104 3 104 6 0 3 -19 43
-42 87 -59 115 -173 228 -287 285 -46 23 -90 42 -97 42 -30 0 -12 20 28 31
119 32 210 109 265 226 39 81 58 178 69 341 l7 112 -45 -20 c-25 -11 -101 -35
-169 -53 -68 -19 -131 -37 -139 -41 -11 -4 -24 11 -47 56 -34 66 -107 162
-187 248 -26 27 -48 50 -49 50 -1 0 -12 -26 -25 -58z m-220 -464 c31 -22 59
-49 62 -61 3 -12 4 -22 3 -23 -4 -5 -135 111 -141 124 -7 16 0 12 76 -40z"></path>
<path d="M613 1863 c-3 -10 -31 -81 -61 -158 -29 -77 -83 -214 -117 -305 -214
-556 -238 -609 -307 -679 -28 -27 -56 -45 -85 -53 -24 -6 -42 -13 -39 -15 4
-4 370 -7 401 -3 6 1 -13 10 -42 21 -77 30 -111 94 -92 178 9 45 82 248 101
284 8 16 26 17 206 15 l197 -3 58 -140 c96 -229 89 -298 -34 -332 -32 -9 -59
-19 -59 -22 0 -8 577 -7 586 1 3 4 -11 10 -32 14 -90 16 -137 59 -187 174 -35
79 -109 255 -236 565 -216 524 -193 475 -224 475 -17 0 -30 -6 -34 -17z m51
-440 c49 -120 91 -224 93 -230 4 -10 -36 -13 -182 -13 -174 0 -187 1 -180 18
17 41 165 436 165 439 0 1 4 3 8 3 4 0 48 -98 96 -217z"></path>
<path d="M1380 1870 c14 -4 37 -11 52 -14 15 -4 43 -22 62 -41 43 -43 56 -99
56 -245 l0 -110 100 0 100 0 0 201 0 201 88 -4 c71 -3 100 -10 146 -32 103
-50 154 -155 143 -293 l-5 -73 104 0 104 0 7 28 c5 15 7 57 7 95 -4 155 -105
258 -284 286 -77 13 -717 13 -680 1z"></path>
<path d="M4090 1870 c8 -5 23 -10 34 -10 38 0 96 -43 117 -87 18 -37 21 -64
23 -178 1 -121 3 -135 19 -135 15 0 17 13 17 128 1 150 4 149 71 -18 l44 -110
112 0 111 0 -34 88 c-19 48 -58 142 -86 210 l-51 122 -196 0 c-130 0 -191 -4
-181 -10z"></path>
<path d="M5254 1843 c-9 -21 -45 -108 -80 -193 -35 -85 -69 -163 -74 -172 -8
-15 -6 -18 14 -18 19 0 27 10 44 53 47 124 84 207 93 207 5 0 9 -58 9 -130 l0
-130 94 0 93 0 5 138 c7 192 27 230 143 265 49 15 46 15 -137 16 l-188 1 -16
-37z"></path>
<path d="M6286 1872 c-2 -4 -35 -86 -72 -182 -258 -672 -312 -808 -345 -871
-39 -73 -93 -125 -155 -149 -27 -10 -44 -20 -39 -20 13 -1 399 -1 405 0 3 1
-19 10 -47 21 -121 47 -129 125 -34 359 l46 115 200 0 200 0 62 -155 c74 -184
79 -221 32 -274 -23 -26 -43 -38 -85 -47 -30 -7 -52 -15 -49 -18 8 -7 595 -7
595 1 0 4 -25 12 -56 18 -97 20 -135 74 -244 342 -27 68 -86 211 -130 318 -44
107 -113 275 -153 372 -68 168 -73 178 -99 178 -15 0 -29 -3 -32 -8z m50 -460
l92 -227 -181 -3 c-99 -1 -182 -1 -184 1 -2 2 26 80 61 173 94 250 108 284
115 284 3 0 47 -102 97 -228z"></path>
<path d="M2740 1422 c-44 -21 -62 -56 -56 -105 6 -49 27 -72 99 -108 46 -24
57 -34 57 -54 0 -14 -8 -29 -21 -36 -14 -7 -18 -14 -11 -21 16 -16 79 17 96
51 34 66 11 127 -61 162 -27 12 -56 29 -65 37 -22 18 -23 51 -3 58 15 6 21 34
8 34 -5 0 -24 -8 -43 -18z"></path>
<path d="M2820 1429 c0 -6 13 -21 29 -35 16 -13 32 -35 35 -49 11 -42 26 -18
26 41 0 47 -12 72 -22 44 -2 -7 -14 -7 -36 -1 -21 6 -32 6 -32 0z"></path>
<path d="M1290 1420 c0 -5 5 -10 10 -10 6 0 10 -55 10 -145 0 -97 -4 -145 -11
-145 -6 0 -9 -6 -6 -12 2 -9 24 -12 73 -10 68 4 91 10 67 19 -16 6 -19 293 -3
293 6 0 10 5 10 10 0 6 -32 10 -75 10 -43 0 -75 -4 -75 -10z"></path>
<path d="M1920 1420 c0 -5 4 -10 9 -10 4 0 48 -69 97 -154 83 -144 91 -154
122 -158 l32 -4 0 58 c0 51 -6 67 -56 155 -31 54 -61 104 -66 111 -13 15 -138
17 -138 2z"></path>
<path d="M2130 1421 c0 -5 7 -14 15 -21 10 -8 15 -31 15 -66 0 -29 5 -56 10
-59 6 -4 10 14 10 48 0 40 6 61 21 81 l20 26 -45 0 c-25 0 -46 -4 -46 -9z"></path>
<path d="M3403 1412 c14 -15 17 -42 17 -147 0 -105 -3 -132 -17 -147 -15 -17
-13 -18 67 -18 80 0 82 1 67 18 -24 26 -25 279 -2 288 36 14 9 24 -67 24 -78
0 -80 -1 -65 -18z"></path>
<path d="M4033 1412 c14 -15 17 -42 17 -147 0 -105 -3 -132 -17 -147 -13 -14
-13 -18 -2 -19 8 0 38 -1 67 -2 l52 -2 0 168 0 167 -67 0 c-63 0 -65 -1 -50
-18z"></path>
<path d="M4180 1422 c0 -5 7 -15 15 -22 12 -10 15 -39 15 -142 0 -105 -3 -130
-15 -134 -24 -10 -17 -24 11 -24 36 0 89 56 104 111 17 61 0 144 -37 181 -28
28 -93 49 -93 30z"></path>
<path d="M4780 1420 c0 -5 5 -10 10 -10 6 0 10 -55 10 -145 0 -97 -4 -145 -11
-145 -6 0 -9 -5 -7 -12 3 -7 27 -12 64 -12 l59 0 3 167 2 167 -65 0 c-37 0
-65 -4 -65 -10z"></path>
<path d="M4930 1426 c0 -2 16 -14 34 -26 19 -11 38 -30 41 -40 11 -35 25 -21
25 25 l0 45 -50 0 c-27 0 -50 -2 -50 -4z"></path>
<path d="M5514 1408 c9 -16 14 -61 16 -146 1 -105 -1 -127 -16 -143 -10 -11
-12 -19 -6 -20 65 -3 144 0 150 6 4 3 -1 11 -11 16 -15 9 -17 28 -17 159 l0
150 -65 0 c-65 0 -65 0 -51 -22z"></path>
<path d="M5660 1421 c0 -5 7 -14 15 -21 21 -17 20 -98 -1 -121 -15 -16 -15
-20 0 -41 9 -13 16 -42 16 -69 0 -32 6 -51 18 -62 27 -24 74 -21 100 6 27 29
28 40 2 32 -17 -5 -20 -2 -20 27 0 41 -24 78 -51 78 -27 0 -23 12 11 32 52 30
53 106 0 133 -31 16 -90 20 -90 6z"></path>
<path d="M1950 1241 c0 -82 -3 -98 -21 -117 l-20 -22 45 -4 c48 -3 59 8 31 32
-11 9 -15 34 -15 94 0 44 -5 88 -10 96 -7 10 -10 -15 -10 -79z"></path>
<path d="M4951 1299 l-23 -30 21 -23 c11 -12 21 -28 21 -35 0 -7 5 -9 10 -6
11 7 14 125 3 124 -5 0 -19 -14 -32 -30z"></path>
<path d="M2680 1154 c0 -52 2 -56 21 -51 12 3 32 1 45 -5 37 -17 40 -2 7 26
-17 14 -36 39 -43 56 -19 46 -30 36 -30 -26z"></path>
<path d="M5007 1173 c-9 -18 -31 -40 -48 -49 -38 -19 -32 -27 23 -27 39 0 43
2 46 26 2 15 2 39 0 55 l-3 27 -18 -32z"></path>
<path d="M1548 933 c-3 -108 -8 -146 -23 -176 -21 -45 -74 -83 -128 -93 -21
-3 -35 -9 -32 -12 6 -6 564 -6 571 0 2 3 -20 10 -49 17 -58 13 -107 53 -126
104 -6 16 -11 89 -11 163 l0 134 -99 0 -99 0 -4 -137z"></path>
<path d="M2094 938 c35 -73 80 -169 100 -213 l37 -80 145 1 c146 1 181 6 125
19 -49 10 -103 83 -188 250 l-78 155 -102 0 -102 0 63 -132z"></path>
<path d="M2660 1005 c41 -91 78 -142 158 -216 105 -97 251 -161 397 -174 282
-25 585 164 684 428 l11 27 -103 0 -103 0 -13 -51 c-36 -139 -152 -293 -259
-346 -51 -25 -68 -28 -157 -28 -123 0 -168 18 -256 102 -73 69 -119 143 -153
243 l-25 75 -105 3 -105 3 29 -66z"></path>
<path d="M4264 942 c0 -72 -6 -143 -13 -164 -17 -51 -77 -103 -129 -112 -89
-14 -34 -21 163 -21 198 0 248 6 165 20 -51 9 -99 41 -124 85 -18 30 -21 56
-25 178 -3 123 -5 142 -20 142 -14 0 -16 -16 -17 -128z"></path>
<path d="M4590 1065 c0 -10 173 -411 181 -419 9 -10 43 59 134 277 31 76 54
141 51 144 -14 14 -33 -11 -60 -75 -16 -39 -32 -69 -36 -67 -4 2 -19 36 -34
74 l-28 71 -104 0 c-57 0 -104 -2 -104 -5z"></path>
<path d="M5259 968 c-1 -178 -16 -226 -89 -276 -18 -12 -51 -25 -72 -28 -21
-4 -37 -9 -34 -11 7 -7 576 -9 576 -1 0 3 -15 10 -32 13 -55 12 -105 45 -128
88 -20 34 -24 59 -28 178 l-5 139 -93 0 -94 0 -1 -102z"></path>
</g>
</svg>